<svg xmlns="http://www.w3.org/2000/svg" xmlns:xlink="http://www.w3.org/1999/xlink" width="2000" zoomAndPan="magnify" viewBox="0 0 1500 1499.999933" height="2000" preserveAspectRatio="xMidYMid meet" version="1.0"><defs><g/><clipPath id="c79262ad63"><path d="M 112.605469 226.886719 L 1387.859375 226.886719 L 1387.859375 1322.410156 L 112.605469 1322.410156 Z M 112.605469 226.886719 " clip-rule="nonzero"/></clipPath><clipPath id="4d4733b6be"><path d="M 1387.394531 774.648438 L 1068.695312 1322.410156 L 431.304688 1322.410156 L 112.605469 774.648438 L 431.304688 226.886719 L 1068.695312 226.886719 Z M 1387.394531 774.648438 " clip-rule="nonzero"/></clipPath><clipPath id="d0a0125ed2"><path d="M 0.605469 0.886719 L 1275.441406 0.886719 L 1275.441406 1096.410156 L 0.605469 1096.410156 Z M 0.605469 0.886719 " clip-rule="nonzero"/></clipPath><clipPath id="1b8eac659b"><path d="M 1275.394531 548.648438 L 956.695312 1096.410156 L 319.304688 1096.410156 L 0.605469 548.648438 L 319.304688 0.886719 L 956.695312 0.886719 Z M 1275.394531 548.648438 " clip-rule="nonzero"/></clipPath><clipPath id="ed7016f022"><rect x="0" width="1276" y="0" height="1097"/></clipPath><clipPath id="1665d54afa"><rect x="0" width="798" y="0" height="748"/></clipPath></defs><g clip-path="url(#c79262ad63)"><g clip-path="url(#4d4733b6be)"><g transform="matrix(1, 0, 0, 1, 112, 226)"><g clip-path="url(#ed7016f022)"><g clip-path="url(#d0a0125ed2)"><g clip-path="url(#1b8eac659b)"><path fill="#000000" d="M 0.605469 0.886719 L 1275.859375 0.886719 L 1275.859375 1096.410156 L 0.605469 1096.410156 Z M 0.605469 0.886719 " fill-opacity="1" fill-rule="nonzero"/></g></g></g></g></g></g><g transform="matrix(1, 0, 0, 1, 351, 401)"><g clip-path="url(#1665d54afa)"><g fill="#14b8a6" fill-opacity="1"><g transform="translate(0.899528, 560.29279)"><g><path d="M 357.28125 -374.359375 L 357.28125 0 L 266.09375 0 L 266.09375 -154.109375 L 124.25 -154.109375 L 124.25 0 L 33.0625 0 L 33.0625 -374.359375 L 124.25 -374.359375 L 124.25 -227.703125 L 266.09375 -227.703125 L 266.09375 -374.359375 Z M 357.28125 -374.359375 "/></g></g></g><g fill="#14b8a6" fill-opacity="1"><g transform="translate(390.719251, 560.29279)"><g><path d="M 281.5625 -255.96875 C 274.8125 -268.40625 265.125 -277.910156 252.5 -284.484375 C 239.882812 -291.066406 225.039062 -294.359375 207.96875 -294.359375 C 178.46875 -294.359375 154.828125 -284.671875 137.046875 -265.296875 C 119.273438 -245.921875 110.390625 -220.054688 110.390625 -187.703125 C 110.390625 -153.222656 119.71875 -126.296875 138.375 -106.921875 C 157.039062 -87.546875 182.726562 -77.859375 215.4375 -77.859375 C 237.832031 -77.859375 256.757812 -83.546875 272.21875 -94.921875 C 287.6875 -106.296875 298.976562 -122.648438 306.09375 -143.984375 L 190.375 -143.984375 L 190.375 -211.171875 L 388.75 -211.171875 L 388.75 -126.390625 C 382 -103.628906 370.535156 -82.472656 354.359375 -62.921875 C 338.179688 -43.367188 317.648438 -27.546875 292.765625 -15.453125 C 267.878906 -3.367188 239.789062 2.671875 208.5 2.671875 C 171.53125 2.671875 138.554688 -5.414062 109.578125 -21.59375 C 80.609375 -37.769531 58.035156 -60.253906 41.859375 -89.046875 C 25.679688 -117.847656 17.59375 -150.734375 17.59375 -187.703125 C 17.59375 -224.679688 25.679688 -257.65625 41.859375 -286.625 C 58.035156 -315.601562 80.519531 -338.179688 109.3125 -354.359375 C 138.113281 -370.535156 171 -378.625 207.96875 -378.625 C 252.769531 -378.625 290.546875 -367.78125 321.296875 -346.09375 C 352.046875 -324.40625 372.394531 -294.363281 382.34375 -255.96875 Z M 281.5625 -255.96875 "/></g></g></g></g></g></svg>