<svg xmlns="http://www.w3.org/2000/svg" xmlns:xlink="http://www.w3.org/1999/xlink" width="2000" zoomAndPan="magnify" viewBox="0 0 1500 1499.999933" height="2000" preserveAspectRatio="xMidYMid meet" version="1.0"><defs><g/><clipPath id="46b5974a4f"><rect x="0" width="748" y="0" height="199"/></clipPath></defs><g fill="#14b8a6" fill-opacity="1"><g transform="translate(526.041893, 813.020526)"><g><path d="M 201 -210.59375 L 201 0 L 149.703125 0 L 149.703125 -86.703125 L 69.90625 -86.703125 L 69.90625 0 L 18.59375 0 L 18.59375 -210.59375 L 69.90625 -210.59375 L 69.90625 -128.09375 L 149.703125 -128.09375 L 149.703125 -210.59375 Z M 201 -210.59375 "/></g></g></g><g fill="#14b8a6" fill-opacity="1"><g transform="translate(745.341507, 813.020526)"><g><path d="M 158.40625 -144 C 154.601562 -151 149.148438 -156.347656 142.046875 -160.046875 C 134.953125 -163.742188 126.601562 -165.59375 117 -165.59375 C 100.394531 -165.59375 87.09375 -160.144531 77.09375 -149.25 C 67.09375 -138.351562 62.09375 -123.800781 62.09375 -105.59375 C 62.09375 -86.195312 67.34375 -71.046875 77.84375 -60.140625 C 88.34375 -49.242188 102.796875 -43.796875 121.203125 -43.796875 C 133.796875 -43.796875 144.441406 -46.992188 153.140625 -53.390625 C 161.847656 -59.796875 168.203125 -69 172.203125 -81 L 107.09375 -81 L 107.09375 -118.796875 L 218.703125 -118.796875 L 218.703125 -71.09375 C 214.898438 -58.300781 208.445312 -46.40625 199.34375 -35.40625 C 190.25 -24.40625 178.703125 -15.503906 164.703125 -8.703125 C 150.703125 -1.898438 134.898438 1.5 117.296875 1.5 C 96.492188 1.5 77.941406 -3.046875 61.640625 -12.140625 C 45.347656 -21.242188 32.648438 -33.894531 23.546875 -50.09375 C 14.453125 -66.300781 9.90625 -84.800781 9.90625 -105.59375 C 9.90625 -126.394531 14.453125 -144.945312 23.546875 -161.25 C 32.648438 -177.550781 45.300781 -190.25 61.5 -199.34375 C 77.695312 -208.445312 96.195312 -213 117 -213 C 142.195312 -213 163.445312 -206.898438 180.75 -194.703125 C 198.050781 -182.503906 209.5 -165.601562 215.09375 -144 Z M 158.40625 -144 "/></g></g></g><g transform="matrix(1, 0, 0, 1, 376, 788)"><g clip-path="url(#46b5974a4f)"><g fill="#e5e7eb" fill-opacity="1"><g transform="translate(0.443663, 148.498818)"><g><path d="M 23.609375 -97.9375 L 23.609375 0 L 10.8125 0 L 10.8125 -97.9375 Z M 23.609375 -97.9375 "/></g></g></g><g fill="#e5e7eb" fill-opacity="1"><g transform="translate(35.009323, 148.498818)"><g><path d="M 48.34375 -78.40625 C 57.707031 -78.40625 65.289062 -75.570312 71.09375 -69.90625 C 76.90625 -64.238281 79.8125 -56.066406 79.8125 -45.390625 L 79.8125 0 L 67.171875 0 L 67.171875 -43.5625 C 67.171875 -51.238281 65.25 -57.113281 61.40625 -61.1875 C 57.5625 -65.269531 52.316406 -67.3125 45.671875 -67.3125 C 38.921875 -67.3125 33.554688 -65.203125 29.578125 -60.984375 C 25.597656 -56.765625 23.609375 -50.628906 23.609375 -42.578125 L 23.609375 0 L 10.8125 0 L 10.8125 -77 L 23.609375 -77 L 23.609375 -66.046875 C 26.140625 -69.972656 29.582031 -73.015625 33.9375 -75.171875 C 38.289062 -77.328125 43.09375 -78.40625 48.34375 -78.40625 Z M 48.34375 -78.40625 "/></g></g></g><g fill="#e5e7eb" fill-opacity="1"><g transform="translate(124.936245, 148.498818)"><g><path d="M 26.421875 -66.46875 L 26.421875 -21.078125 C 26.421875 -17.328125 27.210938 -14.675781 28.796875 -13.125 C 30.390625 -11.582031 33.15625 -10.8125 37.09375 -10.8125 L 46.515625 -10.8125 L 46.515625 0 L 34.984375 0 C 27.867188 0 22.53125 -1.640625 18.96875 -4.921875 C 15.40625 -8.203125 13.625 -13.585938 13.625 -21.078125 L 13.625 -66.46875 L 3.65625 -66.46875 L 3.65625 -77 L 13.625 -77 L 13.625 -96.390625 L 26.421875 -96.390625 L 26.421875 -77 L 46.515625 -77 L 46.515625 -66.46875 Z M 26.421875 -66.46875 "/></g></g></g><g fill="#e5e7eb" fill-opacity="1"><g transform="translate(176.082181, 148.498818)"><g><path d="M 81.078125 -41.453125 C 81.078125 -39.015625 80.9375 -36.4375 80.65625 -33.71875 L 19.109375 -33.71875 C 19.578125 -26.132812 22.175781 -20.210938 26.90625 -15.953125 C 31.632812 -11.691406 37.375 -9.5625 44.125 -9.5625 C 49.644531 -9.5625 54.253906 -10.847656 57.953125 -13.421875 C 61.660156 -15.992188 64.265625 -19.4375 65.765625 -23.75 L 79.53125 -23.75 C 77.46875 -16.34375 73.34375 -10.320312 67.15625 -5.6875 C 60.976562 -1.050781 53.300781 1.265625 44.125 1.265625 C 36.8125 1.265625 30.273438 -0.375 24.515625 -3.65625 C 18.753906 -6.9375 14.234375 -11.597656 10.953125 -17.640625 C 7.679688 -23.679688 6.046875 -30.679688 6.046875 -38.640625 C 6.046875 -46.597656 7.632812 -53.578125 10.8125 -59.578125 C 14 -65.578125 18.472656 -70.191406 24.234375 -73.421875 C 29.992188 -76.648438 36.625 -78.265625 44.125 -78.265625 C 51.425781 -78.265625 57.882812 -76.671875 63.5 -73.484375 C 69.125 -70.304688 73.457031 -65.925781 76.5 -60.34375 C 79.550781 -54.769531 81.078125 -48.472656 81.078125 -41.453125 Z M 67.875 -44.125 C 67.875 -48.988281 66.796875 -53.175781 64.640625 -56.6875 C 62.484375 -60.207031 59.550781 -62.878906 55.84375 -64.703125 C 52.144531 -66.535156 48.050781 -67.453125 43.5625 -67.453125 C 37.09375 -67.453125 31.585938 -65.390625 27.046875 -61.265625 C 22.503906 -57.140625 19.90625 -51.425781 19.25 -44.125 Z M 67.875 -44.125 "/></g></g></g><g fill="#e5e7eb" fill-opacity="1"><g transform="translate(263.198885, 148.498818)"><g><path d="M 23.609375 -64.5 C 25.859375 -68.894531 29.066406 -72.3125 33.234375 -74.75 C 37.398438 -77.1875 42.484375 -78.40625 48.484375 -78.40625 L 48.484375 -65.203125 L 45.109375 -65.203125 C 30.773438 -65.203125 23.609375 -57.425781 23.609375 -41.875 L 23.609375 0 L 10.8125 0 L 10.8125 -77 L 23.609375 -77 Z M 23.609375 -64.5 "/></g></g></g><g fill="#e5e7eb" fill-opacity="1"><g transform="translate(315.609415, 148.498818)"><g><path d="M 6.046875 -38.78125 C 6.046875 -46.644531 7.632812 -53.550781 10.8125 -59.5 C 14 -65.457031 18.378906 -70.070312 23.953125 -73.34375 C 29.523438 -76.625 35.734375 -78.265625 42.578125 -78.265625 C 49.316406 -78.265625 55.171875 -76.8125 60.140625 -73.90625 C 65.109375 -71.007812 68.804688 -67.359375 71.234375 -62.953125 L 71.234375 -77 L 84.171875 -77 L 84.171875 0 L 71.234375 0 L 71.234375 -14.328125 C 68.710938 -9.835938 64.941406 -6.113281 59.921875 -3.15625 C 54.910156 -0.207031 49.082031 1.265625 42.4375 1.265625 C 35.59375 1.265625 29.40625 -0.421875 23.875 -3.796875 C 18.351562 -7.171875 14 -11.898438 10.8125 -17.984375 C 7.632812 -24.078125 6.046875 -31.007812 6.046875 -38.78125 Z M 71.234375 -38.640625 C 71.234375 -44.453125 70.0625 -49.507812 67.71875 -53.8125 C 65.382812 -58.125 62.222656 -61.425781 58.234375 -63.71875 C 54.253906 -66.019531 49.878906 -67.171875 45.109375 -67.171875 C 40.328125 -67.171875 35.96875 -66.046875 32.03125 -63.796875 C 28.101562 -61.546875 24.96875 -58.265625 22.625 -53.953125 C 20.28125 -49.648438 19.109375 -44.59375 19.109375 -38.78125 C 19.109375 -32.882812 20.28125 -27.753906 22.625 -23.390625 C 24.96875 -19.035156 28.101562 -15.710938 32.03125 -13.421875 C 35.96875 -11.128906 40.328125 -9.984375 45.109375 -9.984375 C 49.878906 -9.984375 54.253906 -11.128906 58.234375 -13.421875 C 62.222656 -15.710938 65.382812 -19.035156 67.71875 -23.390625 C 70.0625 -27.753906 71.234375 -32.835938 71.234375 -38.640625 Z M 71.234375 -38.640625 "/></g></g></g><g fill="#e5e7eb" fill-opacity="1"><g transform="translate(410.594714, 148.498818)"><g><path d="M 6.046875 -38.640625 C 6.046875 -46.597656 7.632812 -53.550781 10.8125 -59.5 C 14 -65.457031 18.425781 -70.070312 24.09375 -73.34375 C 29.757812 -76.625 36.25 -78.265625 43.5625 -78.265625 C 53.019531 -78.265625 60.816406 -75.96875 66.953125 -71.375 C 73.085938 -66.789062 77.140625 -60.421875 79.109375 -52.265625 L 65.34375 -52.265625 C 64.03125 -56.953125 61.472656 -60.65625 57.671875 -63.375 C 53.878906 -66.09375 49.175781 -67.453125 43.5625 -67.453125 C 36.25 -67.453125 30.34375 -64.941406 25.84375 -59.921875 C 21.351562 -54.910156 19.109375 -47.816406 19.109375 -38.640625 C 19.109375 -29.367188 21.351562 -22.203125 25.84375 -17.140625 C 30.34375 -12.085938 36.25 -9.5625 43.5625 -9.5625 C 49.175781 -9.5625 53.859375 -10.867188 57.609375 -13.484375 C 61.359375 -16.109375 63.9375 -19.859375 65.34375 -24.734375 L 79.109375 -24.734375 C 77.046875 -16.859375 72.921875 -10.554688 66.734375 -5.828125 C 60.554688 -1.097656 52.832031 1.265625 43.5625 1.265625 C 36.25 1.265625 29.757812 -0.375 24.09375 -3.65625 C 18.425781 -6.9375 14 -11.570312 10.8125 -17.5625 C 7.632812 -23.5625 6.046875 -30.585938 6.046875 -38.640625 Z M 6.046875 -38.640625 "/></g></g></g><g fill="#e5e7eb" fill-opacity="1"><g transform="translate(495.884799, 148.498818)"><g><path d="M 26.421875 -66.46875 L 26.421875 -21.078125 C 26.421875 -17.328125 27.210938 -14.675781 28.796875 -13.125 C 30.390625 -11.582031 33.15625 -10.8125 37.09375 -10.8125 L 46.515625 -10.8125 L 46.515625 0 L 34.984375 0 C 27.867188 0 22.53125 -1.640625 18.96875 -4.921875 C 15.40625 -8.203125 13.625 -13.585938 13.625 -21.078125 L 13.625 -66.46875 L 3.65625 -66.46875 L 3.65625 -77 L 13.625 -77 L 13.625 -96.390625 L 26.421875 -96.390625 L 26.421875 -77 L 46.515625 -77 L 46.515625 -66.46875 Z M 26.421875 -66.46875 "/></g></g></g><g fill="#e5e7eb" fill-opacity="1"><g transform="translate(547.030766, 148.498818)"><g><path d="M 17.421875 -89.515625 C 14.984375 -89.515625 12.921875 -90.351562 11.234375 -92.03125 C 9.554688 -93.71875 8.71875 -95.78125 8.71875 -98.21875 C 8.71875 -100.65625 9.554688 -102.71875 11.234375 -104.40625 C 12.921875 -106.09375 14.984375 -106.9375 17.421875 -106.9375 C 19.765625 -106.9375 21.753906 -106.09375 23.390625 -104.40625 C 25.035156 -102.71875 25.859375 -100.65625 25.859375 -98.21875 C 25.859375 -95.78125 25.035156 -93.71875 23.390625 -92.03125 C 21.753906 -90.351562 19.765625 -89.515625 17.421875 -89.515625 Z M 23.609375 -77 L 23.609375 0 L 10.8125 0 L 10.8125 -77 Z M 23.609375 -77 "/></g></g></g><g fill="#e5e7eb" fill-opacity="1"><g transform="translate(581.596394, 148.498818)"><g><path d="M 39.484375 -11.796875 L 63.375 -77 L 77 -77 L 46.796875 0 L 31.890625 0 L 1.6875 -77 L 15.453125 -77 Z M 39.484375 -11.796875 "/></g></g></g><g fill="#e5e7eb" fill-opacity="1"><g transform="translate(660.42296, 148.498818)"><g><path d="M 81.078125 -41.453125 C 81.078125 -39.015625 80.9375 -36.4375 80.65625 -33.71875 L 19.109375 -33.71875 C 19.578125 -26.132812 22.175781 -20.210938 26.90625 -15.953125 C 31.632812 -11.691406 37.375 -9.5625 44.125 -9.5625 C 49.644531 -9.5625 54.253906 -10.847656 57.953125 -13.421875 C 61.660156 -15.992188 64.265625 -19.4375 65.765625 -23.75 L 79.53125 -23.75 C 77.46875 -16.34375 73.34375 -10.320312 67.15625 -5.6875 C 60.976562 -1.050781 53.300781 1.265625 44.125 1.265625 C 36.8125 1.265625 30.273438 -0.375 24.515625 -3.65625 C 18.753906 -6.9375 14.234375 -11.597656 10.953125 -17.640625 C 7.679688 -23.679688 6.046875 -30.679688 6.046875 -38.640625 C 6.046875 -46.597656 7.632812 -53.578125 10.8125 -59.578125 C 14 -65.578125 18.472656 -70.191406 24.234375 -73.421875 C 29.992188 -76.648438 36.625 -78.265625 44.125 -78.265625 C 51.425781 -78.265625 57.882812 -76.671875 63.5 -73.484375 C 69.125 -70.304688 73.457031 -65.925781 76.5 -60.34375 C 79.550781 -54.769531 81.078125 -48.472656 81.078125 -41.453125 Z M 67.875 -44.125 C 67.875 -48.988281 66.796875 -53.175781 64.640625 -56.6875 C 62.484375 -60.207031 59.550781 -62.878906 55.84375 -64.703125 C 52.144531 -66.535156 48.050781 -67.453125 43.5625 -67.453125 C 37.09375 -67.453125 31.585938 -65.390625 27.046875 -61.265625 C 22.503906 -57.140625 19.90625 -51.425781 19.25 -44.125 Z M 67.875 -44.125 "/></g></g></g></g></g></svg>